<?xml version="1.0" standalone="no"?><!DOCTYPE svg PUBLIC "-//W3C//DTD SVG 1.1//EN" "http://www.w3.org/Graphics/SVG/1.1/DTD/svg11.dtd"><svg t="1536715375047" class="icon" style="" viewBox="0 0 1024 1024" version="1.1" xmlns="http://www.w3.org/2000/svg" p-id="1362" xmlns:xlink="http://www.w3.org/1999/xlink" width="200" height="200"><defs><style type="text/css"></style></defs><path d="M524.195 560.771c-47.157 0-85.375 38.204-85.375 85.346 0 33.965 20.021 63.06 48.787 76.784v93.869c0 20.181 16.4 36.577 36.588 36.577 20.189 0 36.59-16.396 36.59-36.577v-93.872c28.767-13.725 48.787-42.817 48.787-76.783 0-47.14-38.219-85.344-85.377-85.344z m353.662-170.656H146.18c-40.415 0-73.18 32.715-73.18 73.118v487.614c0 40.4 32.765 73.153 73.18 73.153h731.678c40.377 0 73.143-32.753 73.143-73.153V463.233c0-40.402-32.766-73.118-73.144-73.118z m0 511.963c0 40.4-8.37 48.77-48.786 48.77H194.927c-40.414 0-48.747-8.368-48.747-48.77V512.002c0-40.401 8.333-48.769 48.747-48.769h634.145c40.415 0 48.786 8.367 48.786 48.769v390.076zM166.286 353.313c20.313 0 36.833-16.184 37.39-36.356l0.077 0.004C236.819 177.243 362.118 73.155 512 73.155c117.157 0 219.136 63.737 273.948 158.252 5.702 12.906 18.61 21.917 33.632 21.917 20.302 0 36.76-16.452 36.76-36.747a36.565 36.565 0 0 0-6.774-21.244C782.132 78.711 656.454 0 512 0 323.242 0 166.046 129.487 129.854 307.395c-0.171 0.733-0.32 1.473-0.447 2.223-0.176 0.89-0.367 1.773-0.537 2.665l0.177 0.011a37.844 37.844 0 0 0-0.177 3.614c-0.002 20.659 16.751 37.405 37.416 37.405z" p-id="1363"></path></svg>