<?xml version="1.0" standalone="no"?><!DOCTYPE svg PUBLIC "-//W3C//DTD SVG 1.1//EN" "http://www.w3.org/Graphics/SVG/1.1/DTD/svg11.dtd"><svg t="1536715208257" class="icon" style="" viewBox="0 0 1024 1024" version="1.1" xmlns="http://www.w3.org/2000/svg" p-id="1469" xmlns:xlink="http://www.w3.org/1999/xlink" width="200" height="200"><defs><style type="text/css"></style></defs><path d="M744.448 599.552c9.728-9.216 10.24-24.064 1.024-33.28-38.4-40.448-87.552-62.464-131.584-74.752 53.248-34.816 88.064-94.72 88.064-162.816 0-107.52-88.576-195.584-197.12-195.584S307.712 220.672 307.712 328.704c0 68.608 35.84 129.024 90.112 163.84C322.56 512 262.144 547.84 216.064 599.04c-40.448 46.08-68.608 104.96-81.408 171.52-9.728 49.664-7.168 86.528-6.656 88.064 1.024 12.288 11.264 22.016 23.552 22.016h1.536c13.312-1.024 23.04-12.288 22.016-25.088 0-1.024-8.192-129.024 76.8-224.768 56.32-64 141.824-99.84 253.44-106.496h2.56c19.456 0 133.632 3.072 202.24 74.752 9.728 9.216 24.576 9.216 34.304 0.512z m-235.52-122.88h-4.096c-82.432 0-149.504-66.56-149.504-147.968 0-81.92 67.072-147.968 149.504-147.968s149.504 66.56 149.504 147.968c0 80.384-65.024 145.92-145.408 147.968z m71.168 235.008c0 12.8 10.752 23.552 24.064 23.552h227.328c13.312 0 24.064-10.752 24.064-23.552 0-12.8-10.752-23.552-24.064-23.552H604.16c-13.312-0.512-24.064 10.24-24.064 23.552z m251.392 121.344H604.16c-13.312 0-24.064 10.752-24.064 23.552 0 12.8 10.752 23.552 24.064 23.552h227.328c13.312 0 24.064-10.752 24.064-23.552-0.512-12.8-11.264-23.552-24.064-23.552z" fill="#1F2020" p-id="1470"></path></svg>